<svg width="62" height="65" viewBox="0 0 62 65" fill="none" xmlns="http://www.w3.org/2000/svg">
<path fill-rule="evenodd" clip-rule="evenodd" d="M22.1823 51.7755C31.9208 56.2262 43.6619 52.5689 49.1615 43.0433C52.7523 36.824 52.9279 29.3476 49.839 23.081C49.732 22.864 49.806 23.0149 49.806 23.0149C49.6405 22.6943 49.2438 22.5773 48.9193 22.7539L45.4589 24.6379C45.1347 24.8144 45.0062 25.2163 45.1633 25.5279C45.1633 25.5279 45.0702 25.3362 45.1633 25.5279C47.4393 30.2147 47.293 35.7796 44.6149 40.4183C40.5701 47.4241 32.0239 50.1976 24.8067 47.1546C24.6063 47.0701 24.8067 47.1546 24.8067 47.1546C24.4765 47.0072 24.353 46.638 24.5399 46.3143L25.5572 44.5522C25.9197 43.9243 25.6241 43.4743 24.8999 43.5469L16.2667 44.4127C15.5411 44.4855 15.1965 45.0846 15.4957 45.7481L19.0625 53.6575C19.3623 54.3223 19.902 54.3473 20.2666 53.7158L21.2273 52.0519C21.4103 51.7349 21.8168 51.6028 22.1621 51.7662C22.1621 51.7662 21.9735 51.68 22.1823 51.7755ZM39.8167 13.224C30.0787 8.77352 18.3381 12.4311 12.8385 21.9567C9.24773 28.176 9.07192 35.6523 12.1606 41.9187C12.2675 42.1357 12.1935 41.9848 12.1935 41.9848C12.359 42.3054 12.7556 42.4224 13.0801 42.2458L16.5405 40.3617C16.8646 40.1853 16.9932 39.7834 16.8361 39.4718C16.8361 39.4718 16.9291 39.6634 16.8361 39.4718C14.5603 34.785 14.7067 29.2202 17.3848 24.5816C21.4296 17.5758 29.9756 14.8021 37.1924 17.8448C37.3927 17.9293 37.1924 17.8448 37.1924 17.8448C37.5225 17.9922 37.646 18.3614 37.4591 18.6851L36.4418 20.4472C36.0792 21.0752 36.3749 21.5251 37.0991 21.4524L45.7319 20.5865C46.4575 20.5137 46.8021 19.9146 46.5029 19.2511L42.9364 11.3419C42.6367 10.6771 42.097 10.6521 41.7324 11.2837L40.7717 12.9476C40.5887 13.2645 40.1822 13.3967 39.8369 13.2332C39.8369 13.2332 40.0256 13.3194 39.8167 13.224Z" fill="black"/>
</svg>
